<svg width="115" height="39" viewBox="0 0 115 39" fill="none" xmlns="http://www.w3.org/2000/svg">
<path d="M9.58418 21.4198V4.82937H13.2851V24.4316H9.95428L9.58418 21.4198ZM0.855047 17.6934V17.4254C0.855047 16.3704 0.974158 15.4132 1.21238 14.5539C1.4506 13.6861 1.79943 12.9417 2.25886 12.3206C2.71828 11.6995 3.28406 11.2188 3.95619 10.8785C4.62831 10.5382 5.39403 10.368 6.25333 10.368C7.06158 10.368 7.76774 10.5382 8.3718 10.8785C8.98438 11.2188 9.50336 11.7038 9.92876 12.3334C10.3627 12.9544 10.7115 13.6904 10.9752 14.5412C11.239 15.3835 11.4304 16.3066 11.5495 17.3105V17.8975C11.4304 18.8589 11.239 19.7523 10.9752 20.5775C10.7115 21.4028 10.3627 22.126 9.92876 22.7471C9.50336 23.3596 8.98438 23.8361 8.3718 24.1764C7.75923 24.5167 7.04457 24.6869 6.22781 24.6869C5.3685 24.6869 4.60279 24.5125 3.93066 24.1636C3.26705 23.8148 2.70552 23.3256 2.24609 22.696C1.79517 22.0664 1.4506 21.3262 1.21238 20.4755C0.974158 19.6247 0.855047 18.6973 0.855047 17.6934ZM4.53047 17.4254V17.6934C4.53047 18.2634 4.57301 18.7951 4.65809 19.2886C4.75168 19.7821 4.90057 20.2202 5.10476 20.6031C5.31746 20.9774 5.58971 21.2709 5.92152 21.4836C6.26184 21.6878 6.67447 21.7899 7.15942 21.7899C7.78901 21.7899 8.30799 21.6495 8.71638 21.3688C9.12476 21.0795 9.4353 20.6839 9.64799 20.1819C9.8692 19.68 9.99682 19.1014 10.0309 18.4463V16.7745C10.0053 16.2385 9.92876 15.7578 9.80114 15.3324C9.68203 14.8985 9.50336 14.5284 9.26514 14.2221C9.03542 13.9158 8.74615 13.6776 8.39733 13.5075C8.05701 13.3373 7.65288 13.2522 7.18495 13.2522C6.7085 13.2522 6.30012 13.3628 5.95981 13.584C5.61949 13.7967 5.34298 14.0903 5.13028 14.4646C4.92609 14.8389 4.77295 15.2814 4.67085 15.7918C4.57727 16.2938 4.53047 16.8383 4.53047 17.4254ZM20.2531 22.8747L23.9158 10.6233H27.8592L22.3078 26.5118C22.1887 26.8607 22.027 27.235 21.8228 27.6349C21.6272 28.0347 21.3592 28.4134 21.0188 28.7707C20.687 29.1365 20.2659 29.4343 19.7554 29.664C19.2534 29.8937 18.6366 30.0086 17.9049 30.0086C17.5561 30.0086 17.2711 29.9873 17.0499 29.9448C16.8287 29.9022 16.5649 29.8427 16.2587 29.7661V27.0734C16.3522 27.0734 16.4501 27.0734 16.5522 27.0734C16.6543 27.0819 16.7521 27.0861 16.8457 27.0861C17.3307 27.0861 17.7263 27.0308 18.0326 26.9202C18.3388 26.8096 18.5856 26.6394 18.7727 26.4097C18.9599 26.1885 19.1088 25.8993 19.2194 25.5419L20.2531 22.8747ZM18.7217 10.6233L21.7207 20.6286L22.244 24.521L19.7427 24.789L14.7783 10.6233H18.7217ZM32.9257 13.5713V24.4316H29.2503V10.6233H32.696L32.9257 13.5713ZM32.3897 17.0425H31.3943C31.3943 16.0216 31.5261 15.1027 31.7899 14.2859C32.0536 13.4607 32.4237 12.7588 32.9002 12.1802C33.3766 11.5932 33.9424 11.1465 34.5975 10.8402C35.2611 10.5254 36.0013 10.368 36.8181 10.368C37.4647 10.368 38.056 10.4616 38.592 10.6488C39.128 10.836 39.5874 11.1337 39.9703 11.5421C40.3616 11.9505 40.6594 12.4908 40.8636 13.1629C41.0763 13.835 41.1826 14.656 41.1826 15.6259V24.4316H37.4817V15.6132C37.4817 15.0006 37.3966 14.5242 37.2265 14.1838C37.0563 13.8435 36.8053 13.6053 36.4735 13.4692C36.1502 13.3245 35.7503 13.2522 35.2739 13.2522C34.7804 13.2522 34.3508 13.3501 33.9849 13.5457C33.6276 13.7414 33.3298 14.0137 33.0916 14.3625C32.8619 14.7028 32.6875 15.1027 32.5684 15.5621C32.4492 16.0216 32.3897 16.515 32.3897 17.0425ZM51.4304 21.3177V15.1665C51.4304 14.7241 51.3581 14.3455 51.2135 14.0307C51.0689 13.7074 50.8434 13.4564 50.5371 13.2777C50.2393 13.0991 49.8522 13.0097 49.3758 13.0097C48.9674 13.0097 48.6143 13.0821 48.3165 13.2267C48.0188 13.3628 47.789 13.5628 47.6274 13.8265C47.4657 14.0817 47.3849 14.3838 47.3849 14.7326H43.7095C43.7095 14.1456 43.8456 13.5883 44.1179 13.0608C44.3901 12.5333 44.7858 12.0696 45.3047 11.6697C45.8237 11.2614 46.4405 10.9423 47.1552 10.7126C47.8784 10.4829 48.6866 10.368 49.58 10.368C50.652 10.368 51.6049 10.5467 52.4386 10.904C53.2724 11.2614 53.9275 11.7974 54.404 12.512C54.8889 13.2267 55.1314 14.12 55.1314 15.192V21.1008C55.1314 21.858 55.1782 22.4791 55.2718 22.964C55.3654 23.4405 55.5015 23.8574 55.6802 24.2147V24.4316H51.9664C51.7878 24.0573 51.6517 23.5894 51.5581 23.0278C51.473 22.4578 51.4304 21.8878 51.4304 21.3177ZM51.9154 16.0216L51.9409 18.1017H49.8863C49.4013 18.1017 48.9802 18.157 48.6228 18.2676C48.2655 18.3782 47.972 18.5356 47.7423 18.7398C47.5125 18.9355 47.3424 19.1652 47.2318 19.429C47.1297 19.6927 47.0786 19.982 47.0786 20.2968C47.0786 20.6116 47.151 20.8966 47.2956 21.1518C47.4402 21.3986 47.6487 21.5942 47.9209 21.7389C48.1932 21.875 48.5122 21.9431 48.8781 21.9431C49.4311 21.9431 49.9118 21.8325 50.3202 21.6113C50.7285 21.3901 51.0433 21.1178 51.2645 20.7945C51.4943 20.4712 51.6134 20.1649 51.6219 19.8756L52.5918 21.4326C52.4556 21.7814 52.2685 22.143 52.0303 22.5174C51.8005 22.8917 51.507 23.2448 51.1497 23.5766C50.7923 23.8999 50.3627 24.1679 49.8607 24.3806C49.3588 24.5848 48.7632 24.6869 48.0741 24.6869C47.1977 24.6869 46.4023 24.5125 45.6876 24.1636C44.9814 23.8063 44.4199 23.3171 44.003 22.696C43.5946 22.0664 43.3904 21.3518 43.3904 20.552C43.3904 19.8288 43.5266 19.1865 43.7988 18.625C44.0711 18.0635 44.471 17.5913 44.9984 17.2084C45.5344 16.817 46.2023 16.5235 47.0021 16.3278C47.8018 16.1236 48.7292 16.0216 49.7842 16.0216H51.9154ZM57.9645 4.82937H61.64V21.2667L61.2699 24.4316H57.9645V4.82937ZM70.3819 17.3871V17.6551C70.3819 18.6845 70.2713 19.6289 70.0501 20.4882C69.8374 21.3475 69.5055 22.092 69.0546 22.7215C68.6037 23.3426 68.0422 23.8276 67.3701 24.1764C66.7064 24.5167 65.9237 24.6869 65.0219 24.6869C64.1796 24.6869 63.4479 24.5167 62.8268 24.1764C62.2142 23.8361 61.6995 23.3554 61.2826 22.7343C60.8657 22.1132 60.5297 21.3858 60.2744 20.552C60.0192 19.7182 59.8278 18.8079 59.7002 17.821V17.2339C59.8278 16.247 60.0192 15.3367 60.2744 14.5029C60.5297 13.6691 60.8657 12.9417 61.2826 12.3206C61.6995 11.6995 62.2142 11.2188 62.8268 10.8785C63.4394 10.5382 64.1626 10.368 64.9963 10.368C65.9067 10.368 66.6979 10.5424 67.3701 10.8913C68.0507 11.2316 68.6122 11.7165 69.0546 12.3461C69.5055 12.9672 69.8374 13.7074 70.0501 14.5667C70.2713 15.4175 70.3819 16.3576 70.3819 17.3871ZM66.7064 17.6551V17.3871C66.7064 16.8256 66.6639 16.2981 66.5788 15.8046C66.5022 15.3026 66.3661 14.8645 66.1704 14.4901C65.9748 14.1073 65.7068 13.8052 65.3664 13.584C65.0346 13.3628 64.605 13.2522 64.0775 13.2522C63.5755 13.2522 63.1501 13.3373 62.8013 13.5075C62.4525 13.6776 62.1632 13.9158 61.9335 14.2221C61.7123 14.5284 61.5464 14.8942 61.4358 15.3196C61.3252 15.7365 61.2571 16.196 61.2316 16.6979V18.3697C61.2571 19.0419 61.3677 19.6374 61.5634 20.1564C61.7676 20.6669 62.0739 21.071 62.4822 21.3688C62.8991 21.6581 63.4394 21.8027 64.103 21.8027C64.622 21.8027 65.0516 21.7006 65.392 21.4964C65.7323 21.2922 65.996 21.0029 66.1832 20.6286C66.3789 20.2542 66.515 19.8161 66.5916 19.3141C66.6681 18.8036 66.7064 18.2506 66.7064 17.6551ZM80.1192 21.3177V15.1665C80.1192 14.7241 80.0469 14.3455 79.9022 14.0307C79.7576 13.7074 79.5321 13.4564 79.2259 13.2777C78.9281 13.0991 78.541 13.0097 78.0645 13.0097C77.6561 13.0097 77.3031 13.0821 77.0053 13.2267C76.7075 13.3628 76.4778 13.5628 76.3161 13.8265C76.1545 14.0817 76.0737 14.3838 76.0737 14.7326H72.3982C72.3982 14.1456 72.5344 13.5883 72.8066 13.0608C73.0789 12.5333 73.4745 12.0696 73.9935 11.6697C74.5125 11.2614 75.1293 10.9423 75.844 10.7126C76.5671 10.4829 77.3754 10.368 78.2687 10.368C79.3407 10.368 80.2936 10.5467 81.1274 10.904C81.9612 11.2614 82.6163 11.7974 83.0927 12.512C83.5777 13.2267 83.8201 14.12 83.8201 15.192V21.1008C83.8201 21.858 83.8669 22.4791 83.9605 22.964C84.0541 23.4405 84.1902 23.8574 84.3689 24.2147V24.4316H80.6552C80.4765 24.0573 80.3404 23.5894 80.2468 23.0278C80.1617 22.4578 80.1192 21.8878 80.1192 21.3177ZM80.6041 16.0216L80.6297 18.1017H78.575C78.09 18.1017 77.6689 18.157 77.3116 18.2676C76.9542 18.3782 76.6607 18.5356 76.431 18.7398C76.2013 18.9355 76.0311 19.1652 75.9205 19.429C75.8184 19.6927 75.7674 19.982 75.7674 20.2968C75.7674 20.6116 75.8397 20.8966 75.9843 21.1518C76.129 21.3986 76.3374 21.5942 76.6097 21.7389C76.8819 21.875 77.201 21.9431 77.5668 21.9431C78.1198 21.9431 78.6005 21.8325 79.0089 21.6113C79.4173 21.3901 79.7321 21.1178 79.9533 20.7945C80.183 20.4712 80.3021 20.1649 80.3106 19.8756L81.2805 21.4326C81.1444 21.7814 80.9572 22.143 80.719 22.5174C80.4893 22.8917 80.1958 23.2448 79.8384 23.5766C79.4811 23.8999 79.0514 24.1679 78.5495 24.3806C78.0475 24.5848 77.452 24.6869 76.7628 24.6869C75.8865 24.6869 75.091 24.5125 74.3763 24.1636C73.6702 23.8063 73.1087 23.3171 72.6918 22.696C72.2834 22.0664 72.0792 21.3518 72.0792 20.552C72.0792 19.8288 72.2153 19.1865 72.4876 18.625C72.7598 18.0635 73.1597 17.5913 73.6872 17.2084C74.2232 16.817 74.8911 16.5235 75.6908 16.3278C76.4906 16.1236 77.4179 16.0216 78.4729 16.0216H80.6041ZM94.119 20.6158C94.119 20.3521 94.0424 20.1139 93.8893 19.9012C93.7361 19.6885 93.4511 19.4928 93.0342 19.3141C92.6258 19.1269 92.0345 18.9568 91.2603 18.8036C90.5627 18.6505 89.9118 18.4591 89.3078 18.2294C88.7122 17.9911 88.1932 17.7061 87.7508 17.3743C87.3169 17.0425 86.9766 16.6511 86.7298 16.2002C86.4831 15.7408 86.3598 15.2176 86.3598 14.6305C86.3598 14.052 86.4831 13.5075 86.7298 12.997C86.9851 12.4865 87.3467 12.0356 87.8146 11.6442C88.2911 11.2443 88.8696 10.9338 89.5502 10.7126C90.2394 10.4829 91.0136 10.368 91.8729 10.368C93.0725 10.368 94.102 10.5595 94.9613 10.9423C95.8291 11.3252 96.4927 11.8527 96.9521 12.5248C97.4201 13.1884 97.654 13.9456 97.654 14.7964H93.9786C93.9786 14.4391 93.902 14.12 93.7489 13.8393C93.6043 13.55 93.3745 13.3245 93.0598 13.1629C92.7535 12.9927 92.3536 12.9076 91.8601 12.9076C91.4518 12.9076 91.0987 12.98 90.8009 13.1246C90.5031 13.2607 90.2734 13.4479 90.1118 13.6861C89.9586 13.9158 89.882 14.1711 89.882 14.4518C89.882 14.6645 89.9246 14.856 90.0097 15.0261C90.1032 15.1878 90.2521 15.3367 90.4563 15.4728C90.6605 15.6089 90.9243 15.7365 91.2476 15.8556C91.5794 15.9662 91.9878 16.0683 92.4727 16.1619C93.4681 16.3661 94.3572 16.6341 95.1399 16.9659C95.9227 17.2892 96.5437 17.7316 97.0032 18.2932C97.4626 18.8462 97.6923 19.5736 97.6923 20.4755C97.6923 21.088 97.5562 21.6495 97.2839 22.16C97.0117 22.6705 96.6203 23.1172 96.1098 23.5C95.5994 23.8744 94.9868 24.1679 94.2721 24.3806C93.566 24.5848 92.7705 24.6869 91.8857 24.6869C90.601 24.6869 89.5119 24.4572 88.6186 23.9977C87.7338 23.5383 87.0617 22.9555 86.6022 22.2494C86.1513 21.5347 85.9258 20.803 85.9258 20.0543H89.4098C89.4269 20.5563 89.5545 20.9604 89.7927 21.2667C90.0394 21.573 90.35 21.7942 90.7243 21.9303C91.1072 22.0664 91.5198 22.1345 91.9622 22.1345C92.4387 22.1345 92.8343 22.0707 93.1491 21.9431C93.4639 21.8069 93.7021 21.6283 93.8637 21.4071C94.0339 21.1774 94.119 20.9136 94.119 20.6158ZM106.434 24.6869C105.362 24.6869 104.401 24.5167 103.55 24.1764C102.699 23.8276 101.976 23.3469 101.381 22.7343C100.793 22.1217 100.343 21.4113 100.028 20.6031C99.713 19.7863 99.5556 18.9185 99.5556 17.9996V17.4892C99.5556 16.4427 99.7044 15.4856 100.002 14.6177C100.3 13.7499 100.725 12.997 101.278 12.3589C101.84 11.7208 102.521 11.2316 103.32 10.8913C104.12 10.5424 105.022 10.368 106.026 10.368C107.004 10.368 107.872 10.5297 108.629 10.853C109.386 11.1763 110.02 11.6357 110.531 12.2313C111.05 12.8268 111.441 13.5415 111.705 14.3753C111.969 15.2005 112.1 16.1194 112.1 17.1318V18.6633H101.125V16.213H108.489V15.9322C108.489 15.4217 108.395 14.9666 108.208 14.5667C108.029 14.1583 107.757 13.835 107.391 13.5968C107.026 13.3586 106.558 13.2395 105.988 13.2395C105.503 13.2395 105.086 13.3458 104.737 13.5585C104.388 13.7712 104.103 14.069 103.882 14.4518C103.669 14.8347 103.507 15.2856 103.397 15.8046C103.295 16.3151 103.244 16.8766 103.244 17.4892V17.9996C103.244 18.5527 103.32 19.0631 103.473 19.5311C103.635 19.999 103.861 20.4031 104.15 20.7435C104.448 21.0838 104.805 21.3475 105.222 21.5347C105.647 21.7219 106.128 21.8155 106.664 21.8155C107.328 21.8155 107.944 21.6878 108.514 21.4326C109.093 21.1688 109.591 20.7732 110.008 20.2457L111.794 22.1855C111.505 22.6024 111.109 23.0023 110.607 23.3852C110.114 23.768 109.518 24.0828 108.821 24.3295C108.123 24.5678 107.328 24.6869 106.434 24.6869Z" fill="white"/>
<path d="M5.16048 30.4913V37H4.31113V30.4913H5.16048ZM7.25257 30.4913V31.1976H2.22351V30.4913H7.25257ZM16.5645 36.2982V37H13.1179V36.2982H16.5645ZM13.2923 30.4913V37H12.4295V30.4913H13.2923ZM16.1085 33.2897V33.9915H13.1179V33.2897H16.1085ZM16.5198 30.4913V31.1976H13.1179V30.4913H16.5198ZM25.7736 34.9303H26.6319C26.5872 35.3415 26.4695 35.7096 26.2787 36.0344C26.088 36.3593 25.8183 36.617 25.4696 36.8078C25.1209 36.9955 24.6858 37.0894 24.1643 37.0894C23.7828 37.0894 23.4357 37.0179 23.1227 36.8748C22.8128 36.7318 22.5461 36.5291 22.3226 36.2669C22.099 36.0016 21.9262 35.6843 21.804 35.3147C21.6848 34.9422 21.6252 34.5279 21.6252 34.072V33.4238C21.6252 32.9678 21.6848 32.5551 21.804 32.1855C21.9262 31.813 22.1005 31.4941 22.327 31.2289C22.5565 30.9636 22.8322 30.7595 23.154 30.6165C23.4759 30.4734 23.838 30.4019 24.2403 30.4019C24.732 30.4019 25.1478 30.4943 25.4875 30.679C25.8272 30.8638 26.091 31.1201 26.2787 31.4479C26.4695 31.7728 26.5872 32.1498 26.6319 32.5789H25.7736C25.7319 32.2749 25.6544 32.0142 25.5412 31.7966C25.4279 31.5761 25.267 31.4062 25.0584 31.287C24.8498 31.1678 24.5771 31.1082 24.2403 31.1082C23.9512 31.1082 23.6964 31.1633 23.4759 31.2736C23.2583 31.3839 23.0751 31.5403 22.926 31.743C22.78 31.9456 22.6697 32.1885 22.5952 32.4716C22.5207 32.7547 22.4835 33.0691 22.4835 33.4148V34.072C22.4835 34.3909 22.5163 34.6904 22.5818 34.9705C22.6504 35.2506 22.7532 35.4965 22.8903 35.7081C23.0274 35.9197 23.2017 36.0866 23.4133 36.2088C23.6249 36.328 23.8752 36.3876 24.1643 36.3876C24.5309 36.3876 24.8229 36.3295 25.0405 36.2132C25.258 36.097 25.4219 35.9301 25.5322 35.7126C25.6455 35.495 25.7259 35.2342 25.7736 34.9303ZM36.2702 33.2897V33.9915H32.7476V33.2897H36.2702ZM32.8817 30.4913V37H32.0189V30.4913H32.8817ZM37.0212 30.4913V37H36.1629V30.4913H37.0212ZM47.7725 30.4913V37H46.9053L43.6286 31.9799V37H42.7658V30.4913H43.6286L46.9187 35.5248V30.4913H47.7725ZM58.5239 33.54V33.9513C58.5239 34.44 58.4628 34.8781 58.3406 35.2655C58.2184 35.653 58.0426 35.9823 57.8131 36.2535C57.5836 36.5247 57.308 36.7318 56.9861 36.8748C56.6672 37.0179 56.3096 37.0894 55.9132 37.0894C55.5288 37.0894 55.1756 37.0179 54.8538 36.8748C54.5349 36.7318 54.2577 36.5247 54.0223 36.2535C53.7899 35.9823 53.6096 35.653 53.4814 35.2655C53.3533 34.8781 53.2892 34.44 53.2892 33.9513V33.54C53.2892 33.0513 53.3518 32.6147 53.4769 32.2302C53.6051 31.8428 53.7854 31.5135 54.0178 31.2423C54.2503 30.9681 54.526 30.7595 54.8448 30.6165C55.1667 30.4734 55.5198 30.4019 55.9043 30.4019C56.3007 30.4019 56.6583 30.4734 56.9772 30.6165C57.299 30.7595 57.5747 30.9681 57.8042 31.2423C58.0366 31.5135 58.2139 31.8428 58.3361 32.2302C58.4613 32.6147 58.5239 33.0513 58.5239 33.54ZM57.67 33.9513V33.5311C57.67 33.1436 57.6298 32.8009 57.5493 32.5029C57.4719 32.2049 57.3571 31.9546 57.2051 31.7519C57.0531 31.5493 56.8669 31.3958 56.6464 31.2915C56.4288 31.1872 56.1814 31.135 55.9043 31.135C55.6361 31.135 55.3932 31.1872 55.1756 31.2915C54.9611 31.3958 54.7763 31.5493 54.6213 31.7519C54.4693 31.9546 54.3516 32.2049 54.2682 32.5029C54.1847 32.8009 54.143 33.1436 54.143 33.5311V33.9513C54.143 34.3417 54.1847 34.6874 54.2682 34.9884C54.3516 35.2864 54.4708 35.5382 54.6258 35.7439C54.7837 35.9465 54.97 36.1 55.1846 36.2043C55.4021 36.3086 55.645 36.3608 55.9132 36.3608C56.1934 36.3608 56.4422 36.3086 56.6598 36.2043C56.8773 36.1 57.0606 35.9465 57.2096 35.7439C57.3616 35.5382 57.4763 35.2864 57.5538 34.9884C57.6313 34.6874 57.67 34.3417 57.67 33.9513ZM67.9744 36.2982V37H64.72V36.2982H67.9744ZM64.8899 30.4913V37H64.0271V30.4913H64.8899ZM77.8898 33.54V33.9513C77.8898 34.44 77.8287 34.8781 77.7065 35.2655C77.5843 35.653 77.4085 35.9823 77.179 36.2535C76.9495 36.5247 76.6739 36.7318 76.352 36.8748C76.0331 37.0179 75.6755 37.0894 75.2791 37.0894C74.8947 37.0894 74.5416 37.0179 74.2197 36.8748C73.9008 36.7318 73.6237 36.5247 73.3882 36.2535C73.1558 35.9823 72.9755 35.653 72.8473 35.2655C72.7192 34.8781 72.6551 34.44 72.6551 33.9513V33.54C72.6551 33.0513 72.7177 32.6147 72.8429 32.2302C72.971 31.8428 73.1513 31.5135 73.3838 31.2423C73.6162 30.9681 73.8919 30.7595 74.2108 30.6165C74.5326 30.4734 74.8858 30.4019 75.2702 30.4019C75.6666 30.4019 76.0242 30.4734 76.3431 30.6165C76.6649 30.7595 76.9406 30.9681 77.1701 31.2423C77.4025 31.5135 77.5798 31.8428 77.702 32.2302C77.8272 32.6147 77.8898 33.0513 77.8898 33.54ZM77.036 33.9513V33.5311C77.036 33.1436 76.9957 32.8009 76.9153 32.5029C76.8378 32.2049 76.723 31.9546 76.5711 31.7519C76.4191 31.5493 76.2328 31.3958 76.0123 31.2915C75.7947 31.1872 75.5474 31.135 75.2702 31.135C75.002 31.135 74.7591 31.1872 74.5416 31.2915C74.327 31.3958 74.1422 31.5493 73.9872 31.7519C73.8353 31.9546 73.7175 32.2049 73.6341 32.5029C73.5506 32.8009 73.5089 33.1436 73.5089 33.5311V33.9513C73.5089 34.3417 73.5506 34.6874 73.6341 34.9884C73.7175 35.2864 73.8367 35.5382 73.9917 35.7439C74.1497 35.9465 74.3359 36.1 74.5505 36.2043C74.768 36.3086 75.0109 36.3608 75.2791 36.3608C75.5593 36.3608 75.8081 36.3086 76.0257 36.2043C76.2432 36.1 76.4265 35.9465 76.5755 35.7439C76.7275 35.5382 76.8423 35.2864 76.9197 34.9884C76.9972 34.6874 77.036 34.3417 77.036 33.9513ZM88.2031 33.7591V36.1417C88.1226 36.2609 87.9944 36.395 87.8186 36.544C87.6428 36.6901 87.3999 36.8182 87.09 36.9285C86.783 37.0358 86.3866 37.0894 85.9009 37.0894C85.5045 37.0894 85.1394 37.0209 84.8057 36.8838C84.4749 36.7437 84.1873 36.5411 83.9429 36.2758C83.7015 36.0076 83.5137 35.6828 83.3796 35.3013C83.2485 34.9169 83.1829 34.4817 83.1829 33.996V33.4908C83.1829 33.0051 83.2396 32.5715 83.3528 32.19C83.469 31.8085 83.6389 31.4852 83.8624 31.2199C84.0859 30.9517 84.3601 30.7491 84.685 30.612C85.0098 30.4719 85.3823 30.4019 85.8025 30.4019C86.3002 30.4019 86.7159 30.4883 87.0497 30.6612C87.3865 30.831 87.6487 31.0665 87.8365 31.3675C88.0272 31.6685 88.1494 32.0112 88.2031 32.3956H87.3403C87.3016 32.1602 87.2241 31.9456 87.1078 31.7519C86.9946 31.5582 86.8322 31.4032 86.6206 31.287C86.409 31.1678 86.1363 31.1082 85.8025 31.1082C85.5015 31.1082 85.2408 31.1633 85.0202 31.2736C84.7997 31.3839 84.6179 31.5418 84.4749 31.7474C84.3318 31.9531 84.2245 32.2019 84.153 32.494C84.0845 32.786 84.0502 33.1153 84.0502 33.4819V33.996C84.0502 34.3715 84.0934 34.7068 84.1798 35.0018C84.2692 35.2968 84.3959 35.5487 84.5598 35.7573C84.7237 35.9629 84.9189 36.1194 85.1454 36.2266C85.3749 36.3339 85.6282 36.3876 85.9053 36.3876C86.2123 36.3876 86.4611 36.3622 86.6519 36.3116C86.8426 36.2579 86.9916 36.1954 87.0989 36.1238C87.2062 36.0493 87.2881 35.9793 87.3448 35.9137V34.4564H85.8383V33.7591H88.2031ZM94.7702 30.4913V37H93.9075V30.4913H94.7702ZM104.686 36.2982V37H101.239V36.2982H104.686ZM101.413 30.4913V37H100.551V30.4913H101.413ZM104.23 33.2897V33.9915H101.239V33.2897H104.23ZM104.641 30.4913V31.1976H101.239V30.4913H104.641ZM113.434 35.3549C113.434 35.203 113.41 35.0688 113.363 34.9526C113.318 34.8334 113.238 34.7261 113.121 34.6308C113.008 34.5354 112.85 34.4445 112.648 34.3581C112.448 34.2716 112.195 34.1837 111.888 34.0943C111.566 33.999 111.275 33.8932 111.016 33.7769C110.757 33.6577 110.535 33.5221 110.35 33.3701C110.165 33.2182 110.024 33.0438 109.925 32.8471C109.827 32.6504 109.778 32.4254 109.778 32.1721C109.778 31.9188 109.83 31.6849 109.934 31.4703C110.038 31.2557 110.187 31.0694 110.381 30.9115C110.578 30.7506 110.812 30.6254 111.083 30.536C111.354 30.4466 111.657 30.4019 111.99 30.4019C112.479 30.4019 112.893 30.4958 113.233 30.6835C113.576 30.8683 113.837 31.1112 114.015 31.4122C114.194 31.7102 114.284 32.0291 114.284 32.3688H113.425C113.425 32.1244 113.373 31.9084 113.269 31.7206C113.165 31.5299 113.007 31.3809 112.795 31.2736C112.583 31.1633 112.315 31.1082 111.99 31.1082C111.683 31.1082 111.43 31.1544 111.23 31.2468C111.031 31.3391 110.882 31.4643 110.783 31.6223C110.688 31.7802 110.64 31.9605 110.64 32.1632C110.64 32.3003 110.669 32.4254 110.725 32.5387C110.785 32.6489 110.876 32.7518 110.998 32.8471C111.123 32.9425 111.281 33.0304 111.472 33.1109C111.666 33.1913 111.897 33.2688 112.165 33.3433C112.534 33.4476 112.853 33.5639 113.121 33.692C113.39 33.8201 113.61 33.9647 113.783 34.1256C113.959 34.2836 114.088 34.4639 114.172 34.6665C114.258 34.8662 114.302 35.0927 114.302 35.346C114.302 35.6112 114.248 35.8511 114.141 36.0657C114.033 36.2803 113.88 36.4636 113.68 36.6156C113.481 36.7675 113.241 36.8853 112.96 36.9687C112.683 37.0492 112.373 37.0894 112.031 37.0894C111.73 37.0894 111.433 37.0477 111.141 36.9642C110.852 36.8808 110.588 36.7556 110.35 36.5887C110.114 36.4218 109.925 36.2162 109.782 35.9718C109.642 35.7245 109.572 35.4384 109.572 35.1135H110.43C110.43 35.3371 110.474 35.5293 110.56 35.6902C110.646 35.8482 110.764 35.9793 110.913 36.0836C111.065 36.1879 111.236 36.2654 111.427 36.316C111.621 36.3637 111.822 36.3876 112.031 36.3876C112.332 36.3876 112.586 36.3459 112.795 36.2624C113.004 36.179 113.162 36.0598 113.269 35.9048C113.379 35.7498 113.434 35.5665 113.434 35.3549Z" fill="#06B8E9"/>
</svg>
