<svg width="308" height="139" viewBox="0 0 308 139" fill="none" xmlns="http://www.w3.org/2000/svg">
<path d="M284.81 48.18C282.835 45.4685 280.243 43.2647 277.25 41.75C268.85 37.33 256.46 36.35 241.97 36.35C231.27 36.35 227.92 32.49 227.92 26.35C227.92 22.25 231.84 12.72 249.74 12.69C264.47 12.69 272.18 20.82 271.83 24.8H284.54C285.04 8.51003 264.44 -0.0199649 249.72 3.5089e-05C227.63 3.5089e-05 215.23 10.89 215.23 26.66C215.23 32.82 216.79 37.98 220.23 41.78C223.03 44.87 227.08 47.07 232.56 48.21H212.56V41.75V0.100035H200.33V48.18H137.4C137.4 47.79 137.4 47.4 137.4 47V41.75V0.100035H123.83V41.75V48.18H122.1V0.100035H109.46V14.04C105.424 9.64772 100.524 6.13684 95.0674 3.72767C89.6107 1.3185 83.7149 0.0630377 77.75 0.040036C54.75 0.040036 35.92 18.29 33.63 41.69C33.4726 43.2851 33.3958 44.8872 33.4 46.49C33.4 47.03 33.4 47.58 33.4 48.12H31.66V0.100035H19V41.75V48.18H0V50.79H19V74.04V93.04H31.7V74.04V50.79H33.62C34.312 59.1439 37.2033 67.1656 42 74.04C45.6455 79.4357 50.4661 83.9353 56.1 87.2007C61.7338 90.4661 68.0343 92.4125 74.5283 92.8937C81.0222 93.3748 87.5408 92.3783 93.5944 89.9789C99.6479 87.5795 105.079 83.8395 109.48 79.04V92.74C109.41 97.4148 108.418 102.03 106.56 106.32C101.56 117.91 90.56 125.95 77.77 125.95C64.98 125.95 54 117.89 49 106.3C47.1144 102.015 46.0949 97.4002 46 92.72H33.39C33.4427 97.3234 34.1498 101.896 35.49 106.3C41.22 125.04 58 138.57 77.75 138.57C97.5 138.57 114.28 125.04 120 106.3C121.341 101.899 122.048 97.3302 122.1 92.73V50.79H124C124.704 59.1477 127.609 67.1698 132.42 74.04C136.407 79.858 141.743 84.6247 147.971 87.9332C154.2 91.2418 161.137 92.9939 168.19 93.04C174.134 93.0237 180.01 91.7817 185.453 89.3918C190.895 87.0019 195.786 83.5154 199.82 79.15V93.04H212.54V74.04V50.79H265.15C274.35 52.88 276.15 56.85 276.15 62.65C276.237 64.797 275.839 66.9359 274.985 68.9078C274.132 70.8797 272.845 72.6339 271.22 74.04C266.68 77.98 259.22 79.88 249.72 79.88C241.35 79.88 235.31 77.43 231.47 74.03C227.78 70.78 226.11 66.66 226.32 63.03H213.6C213.47 66.8156 214.216 70.58 215.78 74.03C220.84 85.23 234.13 92.58 249.72 92.58C263.2 92.58 280.82 88.58 286.72 74.03C288.155 70.4004 288.855 66.5222 288.78 62.62C288.884 58.5429 288.042 54.497 286.32 50.8H307.68V48.18H284.81ZM96.9 74.04C91.6208 78.1334 85.1302 80.3549 78.45 80.3549C71.7698 80.3549 65.2792 78.1334 60 74.04C56.3901 71.2293 53.3799 67.7239 51.1471 63.7306C48.9143 59.7374 47.5042 55.3373 47 50.79H109.93C109.423 55.3398 108.009 59.7417 105.771 63.7353C103.533 67.7288 100.516 71.2329 96.9 74.04ZM110.1 48.2H46.75C46.75 47.65 46.75 47.1 46.75 46.54C46.7309 44.9397 46.8145 43.3397 47 41.75C49.2 25.32 62.43 12.68 78.43 12.68C94.43 12.68 107.65 25.32 109.83 41.75C110.035 43.3318 110.138 44.9251 110.14 46.52C110.14 47.04 110.13 47.63 110.1 48.18V48.2ZM187.35 74.04C182.063 78.1594 175.552 80.3964 168.85 80.3964C162.148 80.3964 155.637 78.1594 150.35 74.04C146.742 71.2316 143.733 67.7294 141.501 63.7397C139.268 59.75 137.857 55.3538 137.35 50.81H200.28C199.782 55.3484 198.381 59.7415 196.161 63.7308C193.94 67.7201 190.945 71.2252 187.35 74.04Z" fill="#EF7D00"/>
</svg>
