<svg width="122" height="38" viewBox="0 0 122 38" fill="none" xmlns="http://www.w3.org/2000/svg">
<g id="Logotype Horizontal">
<g id="Mavenoid logo">
<path d="M19 0C8.51566 0 0 8.51566 0 19C0 21.7012 2.19759 23.8988 4.8988 23.8988C7.6 23.8988 9.79759 21.7012 9.79759 19C9.79759 16.8024 11.2627 14.6048 14.0096 14.6048C14.8795 14.6048 15.841 14.9253 16.8024 15.4747C15.3373 17.0313 14.3301 18.9084 14.3301 20.7855C14.3301 23.6241 16.7566 25.3639 19 25.3639C21.2434 25.3639 23.6699 23.6241 23.6699 20.7855C23.6699 18.9084 22.6627 17.0313 21.1976 15.4747C22.159 14.9253 23.1205 14.6048 23.9904 14.6048C26.7373 14.6048 28.2024 16.8024 28.2024 19V23.1205H30.9494V19C30.9494 14.9253 27.9735 11.8578 23.9904 11.8578C22.4337 11.8578 20.6482 12.5446 19 13.6434C17.3976 12.5446 15.5663 11.8578 14.0096 11.8578C10.0265 11.8578 7.0506 14.9253 7.0506 19C7.0506 20.1904 6.08916 21.1518 4.8988 21.1518C3.70843 21.1518 2.74699 20.1904 2.74699 19C2.74699 10.0265 10.0265 2.74699 19 2.74699C27.9735 2.74699 35.253 10.0265 35.253 19C35.253 27.9735 27.9277 35.253 19 35.253C14.0096 35.253 9.38554 33.0096 6.27229 29.0723L4.12048 30.7663C7.73735 35.3446 13.1398 38 19 38C29.4843 38 38 29.4843 38 19C38 8.51566 29.4843 0 19 0ZM20.9229 20.8313C20.9229 21.9759 19.9157 22.6627 19 22.6627C18.0843 22.6627 17.0771 21.9759 17.0771 20.8313C17.0771 19.6867 17.8554 18.359 19 17.2145C20.1446 18.359 20.9229 19.6867 20.9229 20.8313Z" fill="#F96443"/>
<path d="M60.3769 16.4832V23.1217H58.2709V17.3073C58.2709 15.7506 57.7215 15.0639 56.6685 15.0639C55.3865 15.0639 54.5624 16.2085 54.5624 17.9482V23.1217H52.4564V17.3073C52.4564 15.7964 51.9528 15.0639 50.854 15.0639C49.5263 15.0639 48.748 16.2085 48.748 17.9482V23.1217H46.6877V13.3699H48.4275L48.5649 14.6518H48.6564C49.2516 13.6904 50.0299 13.141 51.4492 13.141C52.8685 13.141 53.7384 13.9193 54.1504 14.835H54.1962C54.654 13.8735 55.707 13.141 57.1721 13.141C59.4612 13.1868 60.3769 14.7434 60.3769 16.4832Z" fill="#F96443"/>
<path d="M69.3043 16.6229V23.1241H67.6561L67.4272 21.8421H67.3814C66.832 22.7578 65.8706 23.353 64.4971 23.353C62.5742 23.353 61.6127 22.3 61.6127 20.6518C61.6127 19.1409 62.391 18.0879 64.6344 17.5843C66.9236 17.1265 67.2898 16.806 67.2898 16.2108C67.2898 15.5699 66.7862 15.0662 65.5959 15.0662C64.4513 15.0662 63.4898 15.8446 62.8947 16.8976H62.8031L61.7043 15.1578C62.4826 14.0132 63.8561 13.1891 65.5959 13.1891C67.7935 13.1891 69.3043 14.4253 69.3043 16.6229ZM67.1983 18.3168C67.0151 18.6831 66.4657 18.912 65.1838 19.1867C63.9019 19.4614 63.5814 19.9193 63.5814 20.4687C63.5814 21.1096 64.0392 21.4759 64.8176 21.4759C66.0537 21.4759 67.244 20.6976 67.244 19.6903L67.1983 18.3168Z" fill="#F96443"/>
<path d="M73.1046 23.1215L69.7166 13.3697H72.0058L74.4781 21.1528H74.5238L77.0419 13.3697H79.3311L75.8973 23.1215H73.1046Z" fill="#F96443"/>
<path d="M88.0758 18.1786C88.0758 18.4533 88.0758 18.9111 88.0758 18.9111H81.2541C81.2999 20.3304 82.3071 21.4292 83.7722 21.4292C85.0541 21.4292 86.1071 20.5135 86.5649 19.8268H86.6565L87.6179 21.7039C87.1143 22.4364 85.695 23.3979 83.7722 23.3979C80.8878 23.3979 79.1023 21.3376 79.1023 18.316C79.1023 15.2943 81.1167 13.234 83.6348 13.234C86.1529 13.1882 88.0758 15.2027 88.0758 18.1786ZM81.2999 17.2172H85.924C85.8324 16.1184 85.0083 15.0654 83.6348 15.0654C82.2155 15.0654 81.4372 16.2099 81.2999 17.2172Z" fill="#F96443"/>
<path d="M97.7355 16.6205V23.1217H95.6294V17.2157C95.6294 15.8422 95.0343 15.1097 93.7981 15.1097C92.3331 15.1097 91.4174 16.2542 91.4174 18.1314V23.1217H89.3114V13.3699H91.0511L91.1885 14.6518H91.2343C91.8752 13.7362 92.8825 13.141 94.2102 13.141C96.5909 13.1868 97.7355 14.7892 97.7355 16.6205Z" fill="#F96443"/>
<path d="M108.266 18.3168C108.266 21.1554 106.526 23.353 103.55 23.353C100.575 23.353 98.8806 21.1554 98.8806 18.3168C98.8806 15.4325 100.941 13.1891 103.596 13.1891C106.206 13.1891 108.266 15.3867 108.266 18.3168ZM100.941 18.3168C100.941 20.1024 101.902 21.3843 103.55 21.3843C105.199 21.3843 106.16 20.0566 106.16 18.2711C106.16 16.6229 105.153 15.0662 103.55 15.0662C101.948 15.0662 100.941 16.6229 100.941 18.3168Z" fill="#F96443"/>
<path d="M111.93 10.7153C111.93 11.5394 111.426 12.0888 110.556 12.0888C109.64 12.0888 109.137 11.4936 109.137 10.7153C109.137 9.93698 109.64 9.3418 110.556 9.3418C111.426 9.3418 111.93 9.93698 111.93 10.7153ZM109.457 23.1225V13.3707H111.563V23.1225H109.457Z" fill="#F96443"/>
<path d="M120.306 23.1232L120.077 21.8413H120.031C119.482 22.7112 118.52 23.3521 117.101 23.3521C114.354 23.3521 112.798 21.2003 112.798 18.316C112.798 15.4316 114.629 13.1883 117.147 13.1883C118.337 13.1883 119.39 13.7377 119.848 14.4244H119.894V10.2124H122V23.1232H120.306ZM114.858 18.2702C114.858 20.01 115.682 21.3834 117.376 21.3834C118.978 21.3834 119.94 20.1473 119.94 18.316C119.94 16.4847 119.024 15.0654 117.376 15.0654C115.728 15.0654 114.858 16.6678 114.858 18.2702Z" fill="#F96443"/>
</g>
</g>
</svg>
