<?xml version="1.0" encoding="UTF-8" standalone="no"?>
<svg
   version="1.1"
   id="svg43"
   xml:space="preserve"
   width="729.25336"
   height="252.14667"
   viewBox="0 0 729.25336 252.14667"
   xmlns="http://www.w3.org/2000/svg"
   xmlns:svg="http://www.w3.org/2000/svg"><defs
     id="defs47" /><g
     id="g49"
     transform="matrix(1.3333333,0,0,-1.3333333,0,252.14667)"><g
       id="g51"
       style="fill:#ffffff;fill-opacity:1;fill-rule:nonzero;stroke:none"
       transform="scale(0.1)"><path
         d="m 1949.17,1086.07 h 251.69 c 139.65,0 253.06,114.78 253.06,253.06 0,139.68 -113.41,254.46 -253.06,254.46 h -251.69 z m 566.98,-307.011 c 16.6,-17.969 16.6,-45.629 -1.4,-62.227 -8.28,-8.301 -19.35,-12.453 -30.4,-12.453 -12.46,0 -23.53,4.152 -31.83,13.832 l -271.04,280.75 h -232.31 v -250.32 c 0,-24.911 -19.38,-44.262 -44.26,-44.262 -24.9,0 -44.25,19.351 -44.25,44.262 v 887.829 c 0,24.88 19.35,44.25 44.25,44.25 h 295.95 c 188.06,0 340.16,-152.13 340.16,-341.59 0,-156.26 -105.08,-287.64 -248.91,-327.74 l 224.04,-232.331"
         
         id="path53" /><path
         d="m 3463.52,980.984 c 0,103.706 -84.35,189.436 -188.06,189.436 H 2906.22 V 792.891 h 369.24 c 103.71,0 188.06,84.347 188.06,188.093 z m -230.94,612.606 h -326.36 v -336.04 h 326.36 c 92.66,0 167.34,76.06 167.34,168.71 0,91.28 -74.68,167.33 -167.34,167.33 z m 319.45,-612.606 c 0,-152.144 -124.46,-276.605 -276.57,-276.605 h -413.5 c -24.87,0 -44.25,19.351 -44.25,44.262 v 887.829 c 0,24.88 19.38,44.25 44.25,44.25 h 370.62 c 141.06,0 255.84,-114.78 255.84,-254.46 0,-78.83 -35.95,-149.36 -91.28,-196.36 91.28,-45.65 154.89,-139.68 154.89,-248.916"
         
         id="path55" /><path
         d="m 4466.22,1636.47 c 0,-23.52 -19.35,-42.88 -44.25,-42.88 H 4135.73 V 748.641 c 0,-24.911 -19.38,-44.262 -42.88,-44.262 -24.9,0 -44.25,19.351 -44.25,44.262 v 844.949 h -286.26 c -24.88,0 -44.26,19.36 -44.26,42.88 0,24.88 19.38,44.25 44.26,44.25 h 659.63 c 24.9,0 44.25,-19.37 44.25,-44.25"
         
         id="path57" /><path
         d="m 5438.52,776.289 c 15.23,-19.348 12.45,-47.008 -6.9,-62.23 -8.3,-6.899 -17.97,-9.68 -27.65,-9.68 -12.45,0 -24.9,5.531 -34.58,16.601 l -315.31,401.04 -315.29,-401.04 c -8.31,-11.07 -20.76,-16.601 -34.58,-16.601 -9.68,0 -19.35,2.781 -27.65,9.68 -17.98,15.222 -22.13,42.882 -6.9,62.23 l 329.11,416.261 -329.11,417.65 c -15.23,19.35 -11.08,47 6.9,62.22 19.37,13.83 47.02,11.05 62.23,-8.3 l 315.29,-399.64 315.31,399.64 c 15.2,19.35 42.86,22.13 62.23,8.3 19.35,-15.22 22.13,-42.87 6.9,-62.22 l -327.74,-417.65 327.74,-416.261"
         
         id="path59" /><path
         d="m 972.938,1182.26 c 28.462,-47.33 79.782,-78.98 138.232,-78.98 89.27,0 161.88,73.83 161.88,164.57 0,90.74 -72.61,164.57 -161.88,164.57 -89.26,0 -161.881,-73.83 -161.881,-164.57 0,-29.22 7.539,-56.69 20.727,-80.51 0.441,-0.66 0.859,-1.35 1.277,-2.05 0.59,-0.99 1.152,-2.01 1.645,-3.03 z M 262.469,931.074 c -89.266,0 -161.883,-73.824 -161.883,-164.562 0,-90.742 72.617,-164.582 161.883,-164.582 58.547,0 109.918,31.75 138.355,79.218 0.469,0.942 0.985,1.872 1.524,2.782 0.367,0.64 0.761,1.25 1.156,1.859 13.258,23.871 20.848,51.402 20.848,80.723 0,29.347 -7.59,56.929 -20.899,80.797 -0.367,0.589 -0.738,1.179 -1.082,1.773 -0.539,0.898 -1.031,1.809 -1.496,2.719 -28.437,47.496 -79.836,79.273 -138.406,79.273 z M 967.977,341.891 c -11.934,-22.911 -18.688,-49.012 -18.688,-76.711 0,-90.77 72.621,-164.59 161.881,-164.59 89.27,0 161.88,73.82 161.88,164.59 0,90.73 -72.61,164.55 -161.88,164.55 -56.75,0 -106.75,-29.832 -135.678,-74.871 -0.957,-2.41 -2.113,-4.789 -3.465,-7.097 -1.226,-2.063 -2.578,-4.032 -4.05,-5.871 z M 1111.17,0 C 966.453,0 848.703,118.961 848.703,265.18 c 0,30.89 5.254,60.55 14.906,88.16 L 459.664,591.711 C 411.531,536.34 340.98,501.34 262.469,501.34 117.754,501.34 0,620.301 0,766.512 c 0,146.203 117.754,265.148 262.469,265.148 78.484,0 149.039,-34.98 197.172,-90.32 l 403.871,238.67 c -9.602,27.51 -14.809,57.06 -14.809,87.84 0,146.22 117.75,265.16 262.467,265.16 11.89,0 23.6,-0.8 35.07,-2.36 l 130.35,328.7 c 10.24,25.83 39.39,38.47 65.3,28.22 25.81,-10.24 38.45,-39.48 28.21,-65.3 l -128.63,-324.3 c 78.91,-45.79 132.17,-131.79 132.17,-230.12 0,-146.21 -117.75,-265.15 -262.47,-265.15 -78.48,0 -149.037,34.98 -197.17,90.32 L 510.129,854.359 c 9.601,-27.507 14.809,-57.078 14.809,-87.847 0,-30.774 -5.208,-60.313 -14.782,-87.793 L 914.223,440.27 c 48.132,55.179 118.587,90.05 196.947,90.05 144.72,0 262.47,-118.949 262.47,-265.14 C 1373.64,118.961 1255.89,0 1111.17,0"
         
         id="path61" /><path
         d="m 1904.3,102.449 h -40.64 v 337.512 h 40.64 V 102.449"
         
         id="path63" /><path
         d="m 2026.45,218.68 c 0,-11.86 1.39,-23.059 4.17,-33.598 2.78,-10.551 7,-19.82 12.64,-27.801 5.63,-8 12.67,-14.32 21.09,-19.011 8.43,-4.688 18.27,-7.04 29.56,-7.04 11.12,0 20.94,2.352 29.44,7.04 8.49,4.691 15.52,11.011 21.1,19.011 5.56,7.981 9.77,17.25 12.63,27.801 2.85,10.539 4.29,21.738 4.29,33.598 v 4.84 c 0,11.71 -1.44,22.89 -4.29,33.511 -2.86,10.617 -7.11,19.918 -12.74,27.91 -5.65,7.981 -12.71,14.348 -21.21,19.118 -8.5,4.75 -18.39,7.132 -29.67,7.132 -11.13,0 -20.87,-2.382 -29.22,-7.132 -8.35,-4.77 -15.35,-11.137 -20.98,-19.118 -5.64,-7.992 -9.86,-17.293 -12.64,-27.91 -2.78,-10.621 -4.17,-21.801 -4.17,-33.511 z m -40.88,4.84 c 0,17.289 2.53,33.289 7.59,48.011 5.05,14.719 12.23,27.5 21.54,38.348 9.29,10.84 20.61,19.34 33.94,25.492 13.33,6.149 28.27,9.219 44.82,9.219 16.85,0 31.98,-3.07 45.37,-9.219 13.41,-6.152 24.8,-14.652 34.18,-25.492 9.36,-10.848 16.55,-23.629 21.53,-38.348 4.98,-14.722 7.47,-30.722 7.47,-48.011 v -4.84 c 0,-17.27 -2.49,-33.282 -7.47,-48.008 -4.98,-14.723 -12.17,-27.453 -21.53,-38.223 -9.38,-10.769 -20.73,-19.187 -34.07,-25.269 -13.33,-6.078 -28.33,-9.1214 -45.03,-9.1214 -16.7,0 -31.72,3.0434 -45.05,9.1214 -13.33,6.082 -24.68,14.5 -34.06,25.269 -9.37,10.77 -16.59,23.5 -21.64,38.223 -5.06,14.726 -7.59,30.738 -7.59,48.008 v 4.84"
         
         id="path65" /><path
         d="m 2490.48,158.48 45.7,181.711 h 40.66 l -69.22,-237.742 h -32.96 l -57.79,180.18 -56.25,-180.18 h -32.95 l -69.01,237.742 h 40.44 l 46.8,-177.98 55.37,177.98 h 32.74 l 56.47,-181.711"
         
         id="path67" /><path
         d="m 2905.91,131.23 c 7.17,0 14.06,1.18 20.65,3.532 6.59,2.328 12.41,5.558 17.47,9.66 5.05,4.098 9.15,8.976 12.31,14.609 3.14,5.641 5.01,11.75 5.6,18.348 h 38.45 c -0.59,-10.547 -3.48,-20.617 -8.68,-30.207 -5.2,-9.602 -12.06,-18.024 -20.54,-25.274 -8.5,-7.25 -18.36,-13.039 -29.56,-17.359 -11.21,-4.32 -23.1,-6.4804 -35.7,-6.4804 -17.88,0 -33.44,3.1914 -46.7,9.5624 -13.26,6.359 -24.27,14.969 -33.06,25.809 -8.8,10.84 -15.35,23.441 -19.67,37.8 -4.33,14.352 -6.49,29.508 -6.49,45.481 v 9.23 c 0,15.957 2.16,31.129 6.49,45.481 4.32,14.348 10.87,26.949 19.67,37.789 8.79,10.848 19.76,19.449 32.95,25.828 13.19,6.371 28.71,9.551 46.59,9.551 13.91,0 26.54,-2.199 37.9,-6.578 11.35,-4.403 21.17,-10.453 29.45,-18.141 8.27,-7.691 14.74,-16.812 19.43,-27.359 4.69,-10.543 7.33,-21.891 7.92,-34.063 h -38.45 c -0.59,7.332 -2.31,14.192 -5.17,20.563 -2.85,6.367 -6.7,11.929 -11.53,16.699 -4.84,4.75 -10.59,8.531 -17.25,11.309 -6.67,2.781 -14.1,4.171 -22.3,4.171 -12.6,0 -23.04,-2.492 -31.31,-7.472 -8.28,-4.981 -14.95,-11.539 -20.01,-19.668 -5.04,-8.121 -8.6,-17.281 -10.65,-27.461 -2.05,-10.18 -3.07,-20.399 -3.07,-30.649 v -9.23 c 0,-10.551 1.02,-20.91 3.07,-31.09 2.05,-10.18 5.57,-19.312 10.54,-27.359 4.99,-8.063 11.66,-14.582 20.01,-19.551 8.35,-4.981 18.89,-7.481 31.64,-7.481"
         
         id="path69" /><path
         d="m 3103.2,218.68 c 0,-11.86 1.39,-23.059 4.18,-33.598 2.77,-10.551 7,-19.82 12.63,-27.801 5.64,-8 12.67,-14.32 21.1,-19.011 8.42,-4.688 18.27,-7.04 29.55,-7.04 11.13,0 20.95,2.352 29.45,7.04 8.48,4.691 15.52,11.011 21.09,19.011 5.56,7.981 9.77,17.25 12.63,27.801 2.85,10.539 4.29,21.738 4.29,33.598 v 4.84 c 0,11.71 -1.44,22.89 -4.29,33.511 -2.86,10.617 -7.1,19.918 -12.74,27.91 -5.65,7.981 -12.71,14.348 -21.21,19.118 -8.49,4.75 -18.39,7.132 -29.66,7.132 -11.14,0 -20.87,-2.382 -29.22,-7.132 -8.35,-4.77 -15.35,-11.137 -20.99,-19.118 -5.63,-7.992 -9.86,-17.293 -12.63,-27.91 -2.79,-10.621 -4.18,-21.801 -4.18,-33.511 z m -40.87,4.84 c 0,17.289 2.53,33.289 7.58,48.011 5.05,14.719 12.23,27.5 21.54,38.348 9.3,10.84 20.62,19.34 33.94,25.492 13.33,6.149 28.28,9.219 44.83,9.219 16.85,0 31.97,-3.07 45.37,-9.219 13.41,-6.152 24.79,-14.652 34.17,-25.492 9.37,-10.848 16.55,-23.629 21.54,-38.348 4.97,-14.722 7.46,-30.722 7.46,-48.011 v -4.84 c 0,-17.27 -2.49,-33.282 -7.46,-48.008 -4.99,-14.723 -12.17,-27.453 -21.54,-38.223 -9.38,-10.769 -20.73,-19.187 -34.06,-25.269 -13.34,-6.078 -28.34,-9.1214 -45.04,-9.1214 -16.7,0 -31.71,3.0434 -45.05,9.1214 -13.32,6.082 -24.68,14.5 -34.06,25.269 -9.37,10.77 -16.59,23.5 -21.64,38.223 -5.05,14.726 -7.58,30.738 -7.58,48.008 v 4.84"
         
         id="path71" /><path
         d="m 3495.16,165.52 c 0,4.39 -0.65,8.531 -1.97,12.41 -1.32,3.879 -3.92,7.539 -7.8,10.992 -3.88,3.437 -9.42,6.617 -16.59,9.547 -7.18,2.941 -16.63,5.64 -28.35,8.133 -13.18,2.789 -25.05,6.078 -35.6,9.898 -10.55,3.801 -19.52,8.371 -26.91,13.719 -7.39,5.351 -13.08,11.679 -17.03,19.011 -3.96,7.321 -5.93,15.891 -5.93,25.711 0,9.368 2.08,18.27 6.26,26.7 4.17,8.418 10.07,15.808 17.69,22.191 7.61,6.367 16.84,11.43 27.68,15.156 10.84,3.731 22.92,5.602 36.26,5.602 14.2,0 26.91,-1.942 38.12,-5.82 11.21,-3.879 20.73,-9.2 28.56,-15.93 7.84,-6.738 13.82,-14.61 17.92,-23.621 4.1,-9.008 6.15,-18.637 6.15,-28.887 h -40.88 c 0,4.828 -1.09,9.699 -3.29,14.609 -2.2,4.899 -5.42,9.289 -9.66,13.188 -4.26,3.883 -9.46,7.019 -15.61,9.441 -6.15,2.418 -13.26,3.621 -21.31,3.621 -8.5,0 -15.71,-0.98 -21.64,-2.961 -5.94,-1.98 -10.8,-4.621 -14.62,-7.91 -3.81,-3.3 -6.58,-7.031 -8.35,-11.211 -1.76,-4.168 -2.63,-8.461 -2.63,-12.847 0,-4.403 0.73,-8.352 2.2,-11.864 1.46,-3.527 4.25,-6.707 8.35,-9.566 4.1,-2.852 9.7,-5.492 16.81,-7.91 7.1,-2.422 16.29,-4.871 27.58,-7.352 14.5,-3.379 27.08,-7.179 37.78,-11.429 10.69,-4.25 19.56,-9.2 26.59,-14.84 7.03,-5.629 12.27,-12.11 15.71,-19.442 3.44,-7.32 5.17,-15.82 5.17,-25.48 0,-10.418 -2.16,-19.93 -6.49,-28.578 -4.32,-8.641 -10.51,-16.031 -18.56,-22.18 -8.06,-6.152 -17.73,-10.961 -29,-14.391 -11.29,-3.4487 -23.81,-5.1714 -37.58,-5.1714 -15.82,0 -29.77,2.1914 -41.85,6.5894 -12.1,4.403 -22.24,10.223 -30.44,17.473 -8.21,7.25 -14.43,15.52 -18.68,24.828 -4.25,9.301 -6.37,18.86 -6.37,28.672 h 40.65 c 0.43,-8.351 2.45,-15.351 6.04,-20.98 3.59,-5.641 8.1,-10.219 13.51,-13.731 5.43,-3.519 11.36,-6.019 17.8,-7.48 6.45,-1.461 12.88,-2.2 19.34,-2.2 8.35,0 15.67,0.891 21.97,2.641 6.3,1.758 11.6,4.18 15.93,7.258 4.32,3.07 7.58,6.691 9.78,10.871 2.2,4.172 3.29,8.68 3.29,13.52"
         
         id="path73" /><path
         d="m 3670.93,397.77 v -57.579 h 44.38 V 308.77 h -44.38 V 161.34 c 0,-6.149 0.74,-11.102 2.19,-14.828 1.47,-3.731 3.41,-6.633 5.82,-8.68 2.43,-2.051 5.2,-3.402 8.35,-4.07 3.16,-0.66 6.41,-0.981 9.77,-0.981 3.39,0 6.93,0.321 10.66,0.981 3.76,0.668 6.63,1.207 8.69,1.648 v -32.961 c -3.22,-0.879 -7.39,-1.828 -12.52,-2.8592 -5.14,-1.0195 -11.35,-1.5312 -18.69,-1.5312 -7.47,0 -14.54,1.0703 -21.19,3.1914 -6.68,2.109 -12.5,5.672 -17.46,10.648 -4.99,4.981 -8.94,11.543 -11.89,19.672 -2.92,8.121 -4.4,18.121 -4.4,29.989 V 308.77 h -43.28 v 31.421 h 43.28 v 57.579 h 40.67"
         
         id="path75" /><path
         d="m 4070.09,303.719 c -3.51,0.582 -6.78,0.992 -9.78,1.211 -2.99,0.218 -6.41,0.332 -10.21,0.332 -14.05,0 -25.52,-3.071 -34.38,-9.223 -8.87,-6.168 -15.5,-14.437 -19.89,-24.84 v -168.75 h -40.65 v 237.742 h 39.54 l 0.66,-27.453 c 6.17,9.813 13.85,17.571 23.09,23.282 9.23,5.722 20.43,8.57 33.62,8.57 2.92,0 6.28,-0.32 10.09,-0.981 3.81,-0.668 6.46,-1.371 7.91,-2.089 v -37.801"
         
         id="path77" /><path
         d="m 4160.16,218.68 c 0,-11.86 1.38,-23.059 4.18,-33.598 2.77,-10.551 7,-19.82 12.62,-27.801 5.65,-8 12.67,-14.32 21.1,-19.011 8.42,-4.688 18.27,-7.04 29.56,-7.04 11.13,0 20.95,2.352 29.45,7.04 8.47,4.691 15.52,11.011 21.09,19.011 5.55,7.981 9.78,17.25 12.62,27.801 2.85,10.539 4.3,21.738 4.3,33.598 v 4.84 c 0,11.71 -1.45,22.89 -4.3,33.511 -2.84,10.617 -7.09,19.918 -12.74,27.91 -5.65,7.981 -12.7,14.348 -21.19,19.118 -8.5,4.75 -18.4,7.132 -29.67,7.132 -11.15,0 -20.87,-2.382 -29.22,-7.132 -8.35,-4.77 -15.35,-11.137 -21,-19.118 -5.62,-7.992 -9.85,-17.293 -12.62,-27.91 -2.8,-10.621 -4.18,-21.801 -4.18,-33.511 z m -40.88,4.84 c 0,17.289 2.52,33.289 7.58,48.011 5.06,14.719 12.23,27.5 21.54,38.348 9.31,10.84 20.63,19.34 33.94,25.492 13.33,6.149 28.29,9.219 44.84,9.219 16.85,0 31.97,-3.07 45.36,-9.219 13.41,-6.152 24.8,-14.652 34.18,-25.492 9.36,-10.848 16.55,-23.629 21.54,-38.348 4.96,-14.722 7.46,-30.722 7.46,-48.011 v -4.84 c 0,-17.27 -2.5,-33.282 -7.46,-48.008 -4.99,-14.723 -12.18,-27.453 -21.54,-38.223 -9.38,-10.769 -20.72,-19.187 -34.06,-25.269 -13.33,-6.078 -28.34,-9.1214 -45.04,-9.1214 -16.7,0 -31.73,3.0434 -45.06,9.1214 -13.31,6.082 -24.68,14.5 -34.06,25.269 -9.36,10.77 -16.58,23.5 -21.64,38.223 -5.06,14.726 -7.58,30.738 -7.58,48.008 v 4.84"
         
         id="path79" /><path
         d="m 4574.32,223.301 c 0,11.871 -1.1,23.031 -3.31,33.508 -2.19,10.472 -5.75,19.671 -10.66,27.582 -4.91,7.898 -11.3,14.168 -19.23,18.781 -7.91,4.617 -17.56,6.93 -29,6.93 -7.47,0 -14.19,-0.961 -20.21,-2.864 -5.99,-1.906 -11.4,-4.547 -16.14,-7.906 -4.76,-3.383 -8.91,-7.332 -12.42,-11.863 -3.51,-4.547 -6.51,-9.457 -9.01,-14.719 V 169.91 c 2.65,-5.281 5.74,-10.191 9.33,-14.719 3.61,-4.543 7.78,-8.5 12.52,-11.871 4.77,-3.371 10.14,-6.011 16.16,-7.91 6.02,-1.898 12.75,-2.851 20.21,-2.851 11,0 20.36,2.261 28.14,6.8 7.76,4.551 14.12,10.7 19.11,18.473 4.98,7.758 8.64,16.867 10.98,27.34 2.35,10.476 3.53,21.648 3.53,33.508 z m 40.65,-4.621 c 0,-17.418 -2.07,-33.508 -6.17,-48.219 -4.1,-14.723 -10.09,-27.461 -18,-38.231 -7.91,-10.769 -17.58,-19.16 -29,-25.16 -11.45,-6 -24.48,-9.0114 -39.12,-9.0114 -15.67,0 -29.22,2.7504 -40.64,8.2424 -11.45,5.5 -21.1,13.371 -29.01,23.621 l -1.98,-27.473 h -37.36 v 337.512 h 40.65 v -125.91 c 7.9,9.808 17.43,17.359 28.56,22.629 11.15,5.281 24.26,7.91 39.34,7.91 14.93,0 28.16,-2.918 39.66,-8.781 11.49,-5.868 21.17,-14.11 29,-24.727 7.83,-10.621 13.8,-23.371 17.9,-38.223 4.1,-14.867 6.17,-31.398 6.17,-49.558 v -4.621"
         
         id="path81" /><path
         d="m 4723.26,218.68 c 0,-11.86 1.4,-23.059 4.18,-33.598 2.77,-10.551 7,-19.82 12.65,-27.801 5.62,-8 12.67,-14.32 21.09,-19.011 8.42,-4.688 18.27,-7.04 29.54,-7.04 11.13,0 20.95,2.352 29.45,7.04 8.49,4.691 15.52,11.011 21.09,19.011 5.58,7.981 9.78,17.25 12.65,27.801 2.85,10.539 4.27,21.738 4.27,33.598 v 4.84 c 0,11.71 -1.42,22.89 -4.27,33.511 -2.87,10.617 -7.12,19.918 -12.75,27.91 -5.64,7.981 -12.72,14.348 -21.21,19.118 -8.5,4.75 -18.4,7.132 -29.67,7.132 -11.12,0 -20.87,-2.382 -29.22,-7.132 -8.35,-4.77 -15.35,-11.137 -20.97,-19.118 -5.65,-7.992 -9.88,-17.293 -12.65,-27.91 -2.78,-10.621 -4.18,-21.801 -4.18,-33.511 z m -40.86,4.84 c 0,17.289 2.53,33.289 7.59,48.011 5.03,14.719 12.23,27.5 21.53,38.348 9.29,10.84 20.61,19.34 33.94,25.492 13.34,6.149 28.27,9.219 44.82,9.219 16.85,0 31.97,-3.07 45.38,-9.219 13.41,-6.152 24.78,-14.652 34.16,-25.492 9.38,-10.848 16.55,-23.629 21.54,-38.348 4.98,-14.722 7.46,-30.722 7.46,-48.011 v -4.84 c 0,-17.27 -2.48,-33.282 -7.46,-48.008 -4.99,-14.723 -12.16,-27.453 -21.54,-38.223 -9.38,-10.769 -20.72,-19.187 -34.06,-25.269 -13.33,-6.078 -28.34,-9.1214 -45.04,-9.1214 -16.7,0 -31.7,3.0434 -45.04,9.1214 -13.33,6.082 -24.68,14.5 -34.06,25.269 -9.38,10.77 -16.6,23.5 -21.63,38.223 -5.06,14.726 -7.59,30.738 -7.59,48.008 v 4.84"
         
         id="path83" /><path
         d="m 5031.95,397.77 v -57.579 h 44.4 V 308.77 h -44.4 V 161.34 c 0,-6.149 0.74,-11.102 2.21,-14.828 1.45,-3.731 3.39,-6.633 5.82,-8.68 2.41,-2.051 5.18,-3.402 8.35,-4.07 3.14,-0.66 6.41,-0.981 9.77,-0.981 3.37,0 6.93,0.321 10.66,0.981 3.73,0.668 6.63,1.207 8.67,1.648 v -32.961 c -3.22,-0.879 -7.39,-1.828 -12.52,-2.8592 -5.14,-1.0195 -11.35,-1.5312 -18.67,-1.5312 -7.46,0 -14.54,1.0703 -21.22,3.1914 -6.65,2.109 -12.47,5.672 -17.46,10.648 -4.98,4.981 -8.93,11.543 -11.86,19.672 -2.94,8.121 -4.39,18.121 -4.39,29.989 V 308.77 h -43.3 v 31.421 h 43.3 v 57.579 h 40.64"
         
         id="path85" /><path
         d="m 5194.96,102.449 h -40.64 v 237.742 h 40.64 z m -43.93,300.813 c 0,6.59 2.01,12.148 6.04,16.687 4.03,4.551 9.99,6.821 17.9,6.821 7.91,0 13.93,-2.27 18.03,-6.821 4.1,-4.539 6.14,-10.097 6.14,-16.687 0,-6.602 -2.04,-12.09 -6.14,-16.481 -4.1,-4.402 -10.12,-6.601 -18.03,-6.601 -7.91,0 -13.87,2.199 -17.9,6.601 -4.03,4.391 -6.04,9.879 -6.04,16.481"
         
         id="path87" /><path
         d="m 5366.76,253.41 52.75,86.781 h 47.45 l -77.77,-117.543 80.2,-120.199 h -47.03 l -54.93,89 -54.94,-89 h -47.22 l 80.18,120.199 -77.77,117.543 h 47.02 l 52.06,-86.781"
         
         id="path89" /></g></g></svg>
